HIERARCHY
ROOT Hips
{
	OFFSET 0.00000 0.00000 0.00000
	CHANNELS 6 Xposition Yposition Zposition Zrotation Yrotation Xrotation 
	JOINT LHipJoint
	{
		OFFSET 0 0 0
		CHANNELS 3 Zrotation Yrotation Xrotation
		JOINT LeftUpLeg
		{
			OFFSET 1.64549 -1.70879 0.84566
			CHANNELS 3 Zrotation Yrotation Xrotation
			JOINT LeftLeg
			{
				OFFSET 2.24963 -6.18082 0.00000
				CHANNELS 3 Zrotation Yrotation Xrotation
				JOINT LeftFoot
				{
					OFFSET 2.71775 -7.46697 0.00000
					CHANNELS 3 Zrotation Yrotation Xrotation
					JOINT LeftToeBase
					{
						OFFSET 0.18768 -0.51564 2.24737
						CHANNELS 3 Zrotation Yrotation Xrotation
						End Site
						{
							OFFSET 0.00000 -0.00000 1.15935
						}
					}
				}
			}
		}
	}
	JOINT RHipJoint
	{
		OFFSET 0 0 0
		CHANNELS 3 Zrotation Yrotation Xrotation
		JOINT RightUpLeg
		{
			OFFSET -1.58830 -1.70879 0.84566
			CHANNELS 3 Zrotation Yrotation Xrotation
			JOINT RightLeg
			{
				OFFSET -2.25006 -6.18201 0.00000
				CHANNELS 3 Zrotation Yrotation Xrotation
				JOINT RightFoot
				{
					OFFSET -2.72829 -7.49593 0.00000
					CHANNELS 3 Zrotation Yrotation Xrotation
					JOINT RightToeBase
					{
						OFFSET -0.21541 -0.59185 2.10643
						CHANNELS 3 Zrotation Yrotation Xrotation
						End Site
						{
							OFFSET -0.00000 -0.00000 1.09838
						}
					}
				}
			}
		}
	}
	JOINT LowerBack
	{
		OFFSET 0 0 0
		CHANNELS 3 Zrotation Yrotation Xrotation
		JOINT Spine
		{
			OFFSET 0.03142 2.10496 -0.11038
			CHANNELS 3 Zrotation Yrotation Xrotation
			JOINT Spine1
			{
				OFFSET -0.01863 2.10897 -0.06956
				CHANNELS 3 Zrotation Yrotation Xrotation
				JOINT Neck
				{
					OFFSET 0 0 0
					CHANNELS 3 Zrotation Yrotation Xrotation
					JOINT Neck1
					{
						OFFSET -0.02267 1.73238 0.00451
						CHANNELS 3 Zrotation Yrotation Xrotation
						JOINT Head
						{
							OFFSET -0.05808 1.54724 -0.61749
							CHANNELS 3 Zrotation Yrotation Xrotation
							End Site
							{
								OFFSET -0.01396 1.71468 -0.21082
							}
						}
					}
				}
				JOINT LeftShoulder
				{
					OFFSET 0 0 0
					CHANNELS 3 Zrotation Yrotation Xrotation
					JOINT LeftArm
					{
						OFFSET 3.44898 0.50298 0.21920
						CHANNELS 3 Zrotation Yrotation Xrotation
						JOINT LeftForeArm
						{
							OFFSET 5.41917 -0.00000 -0.00000
							CHANNELS 3 Zrotation Yrotation Xrotation
							JOINT LeftHand
							{
								OFFSET 2.44373 -0.00000 0.00000
								CHANNELS 3 Zrotation Yrotation Xrotation
								JOINT LeftFingerBase
								{
									OFFSET 0 0 0
									CHANNELS 3 Zrotation Yrotation Xrotation
									JOINT LeftHandIndex1
									{
										OFFSET 0.72750 -0.00000 0.00000
										CHANNELS 3 Zrotation Yrotation Xrotation
										End Site
										{
											OFFSET 0.58653 -0.00000 0.00000
										}
									}
								}
								JOINT LThumb
								{
									OFFSET 0 0 0
									CHANNELS 3 Zrotation Yrotation Xrotation
									End Site
									{
										OFFSET 0.59549 -0.00000 0.59549
									}
								}
							}
						}
					}
				}
				JOINT RightShoulder
				{
					OFFSET 0 0 0
					CHANNELS 3 Zrotation Yrotation Xrotation
					JOINT RightArm
					{
						OFFSET -3.23015 0.55830 0.31051
						CHANNELS 3 Zrotation Yrotation Xrotation
						JOINT RightForeArm
						{
							OFFSET -5.58976 -0.00010 0.00014
							CHANNELS 3 Zrotation Yrotation Xrotation
							JOINT RightHand
							{
								OFFSET -2.48060 -0.00000 0.00000
								CHANNELS 3 Zrotation Yrotation Xrotation
								JOINT RightFingerBase
								{
									OFFSET 0 0 0
									CHANNELS 3 Zrotation Yrotation Xrotation
									JOINT RightHandIndex1
									{
										OFFSET -0.81601 -0.00000 0.00000
										CHANNELS 3 Zrotation Yrotation Xrotation
										End Site
										{
											OFFSET -0.65789 -0.00000 0.00000
										}
									}
								}
								JOINT RThumb
								{
									OFFSET 0 0 0
									CHANNELS 3 Zrotation Yrotation Xrotation
									End Site
									{
										OFFSET -0.66793 -0.00000 0.66793
									}
								}
							}
						}
					}
				}
			}
		}
	}
}
MOTION
Frames: 6
Frame Time: .0083333
-0.2325 16.3149 -0.6664 177.7940 -6.1596 -159.2620 0.0000 0.0000 0.0000 -30.5437 -11.7288 -36.6265 5.0101 13.3951 40.8663 3.2936 7.6649 -37.5472 0.0120 0.7059 1.9399 0.0000 0.0000 0.0000 24.4994 -11.2451 -29.8944 -9.5485 -17.1480 57.9682 -1.2540 -28.1672 26.6404 -0.9659 -6.2576 17.5336 -1.3098 0.3476 -15.0683 0.2471 -0.1066 -5.7336 0.9673 -0.3589 2.3769 -1.1453 1.2322 -12.7179 1.7665 -3.4092 39.1814 -0.0593 -2.9256 16.1685 -0.0000 0.0000 0.0000 -91.2046 19.0729 0.9349 18.1224 -28.3136 -4.6071 -0.0000 -0.0000 8.2630 17.6039 18.5464 5.7629 -7.1250 0.0000 -0.0000 -10.3324 49.0917 -1.0528 -0.0000 0.0000 0.0000 83.7671 -13.4264 0.5080 -6.9513 11.8390 -0.7216 0.0000 0.0000 11.6981 -30.4028 21.4258 -12.0978 7.1250 -0.0000 -0.0000 -1.0571 -5.5187 -0.9507
-0.2338 16.3161 -0.6665 178.3190 -6.1349 -159.3300 0.0000 0.0000 0.0000 -29.9515 -11.6417 -36.7350 5.0195 13.4057 40.9068 3.3232 7.5598 -37.6417 0.0164 0.8264 2.2712 0.0000 0.0000 0.0000 25.0344 -11.0878 -29.7695 -9.5271 -17.1352 57.8958 -1.1517 -28.6733 26.3995 -1.1320 -6.7575 18.9990 -0.8296 0.4229 -15.0525 0.4338 -0.0839 -5.7389 0.8950 -0.3513 2.3653 -1.2124 1.2879 -12.6849 1.7542 -3.2602 39.0878 -0.0231 -2.8683 16.1074 -0.0000 -0.0000 0.0000 -91.4710 19.1475 1.3043 17.9697 -28.1183 -4.5349 -0.0000 -0.0000 8.8896 17.1968 19.0919 5.7803 -7.1250 0.0000 -0.0000 -10.8996 49.5828 -1.2448 -0.0000 -0.0000 0.0000 83.9861 -13.3500 -0.6276 -6.8763 11.7155 -0.7063 0.0000 0.0000 12.1343 -30.0787 20.8226 -11.6338 7.1250 -0.0000 -0.0000 -0.9405 -6.2569 -0.8325
-0.2347 16.3167 -0.6710 178.3970 -6.0520 -159.4020 0.0000 0.0000 0.0000 -29.8959 -11.5705 -36.6949 5.0165 13.4023 40.8938 3.2725 7.9981 -37.6116 0.0064 0.5163 1.4186 0.0000 0.0000 0.0000 25.0750 -11.1603 -29.6870 -9.5280 -17.1357 57.8987 -1.1132 -28.8889 26.3251 -1.1835 -6.9041 19.4316 -0.7955 0.4491 -15.0044 0.4745 -0.0589 -5.7627 0.9227 -0.3399 2.3143 -1.1447 1.3549 -12.6168 1.6592 -3.1261 39.0517 -0.0516 -2.8150 16.0650 -0.0000 -0.0000 0.0000 -91.7322 19.0956 1.1746 17.5266 -27.5468 -4.3281 -0.0000 -0.0000 10.1299 17.1812 19.0715 5.7689 -7.1250 0.0000 -0.0000 -10.9076 49.5597 -1.2395 -0.0000 -0.0000 0.0000 84.2292 -13.4093 -1.3778 -6.8286 11.6368 -0.6967 0.0000 0.0000 12.1437 -30.0331 20.1079 -11.2411 7.1250 -0.0000 -0.0000 -1.0107 -7.0601 -0.8790
-0.2314 16.3168 -0.6672 178.4010 -5.8068 -159.3320 0.0000 0.0000 0.0000 -29.8926 -11.6313 -36.8098 5.0172 13.4032 40.8970 3.2703 8.3521 -37.7838 0.0041 0.4119 1.1317 0.0000 0.0000 0.0000 25.0507 -10.9706 -29.7845 -9.5444 -17.1455 57.9543 -1.1648 -28.7127 26.4857 -1.0810 -6.6086 18.5608 -0.9179 0.5237 -14.9922 0.4754 0.0546 -5.7710 1.0117 -0.2831 2.2955 -1.1510 1.3766 -12.7794 1.7136 -3.0582 39.0028 -0.0132 -2.7639 16.0791 -0.0000 -0.0000 0.0000 -91.9035 18.8301 1.1417 16.9226 -26.7557 -4.0524 -0.0000 -0.0000 11.3385 17.5158 18.3825 5.6838 -7.1250 0.0000 -0.0000 -10.3643 48.9120 -1.0099 -0.0000 -0.0000 0.0000 84.4990 -13.4170 -1.6877 -6.9248 11.7955 -0.7162 0.0000 0.0000 11.6063 -29.6125 19.0783 -10.5242 7.1250 -0.0000 -0.0000 -0.8793 -8.2883 -0.7434
-0.2294 16.3184 -0.6652 178.2670 -5.4520 -159.2180 0.0000 0.0000 0.0000 -30.0598 -11.6719 -36.8903 4.9964 13.3797 40.8071 3.2851 8.4578 -37.9126 0.0136 0.7522 2.0671 0.0000 0.0000 0.0000 24.8081 -10.6395 -29.9487 -9.5785 -17.1659 58.0699 -1.3007 -28.3565 26.9686 -0.9335 -6.1546 17.2335 -1.1977 0.5695 -15.1037 0.4668 0.1641 -5.6866 1.1791 -0.2240 2.4382 -1.2213 1.3747 -13.1292 1.7180 -2.9514 38.9385 0.0222 -2.7000 16.1294 -0.0000 -0.0000 0.0000 -92.1754 18.6688 1.3887 16.7345 -26.5065 -3.9681 -0.0000 -0.0000 11.9379 17.7083 17.7090 5.5475 -7.1250 0.0000 -0.0000 -9.9743 48.2551 -0.8084 -0.0000 -0.0000 0.0000 84.6663 -13.0599 -2.6844 -6.7879 11.5696 -0.6885 0.0000 0.0000 11.5758 -29.2433 18.7149 -10.1840 7.1250 -0.0000 -0.0000 -0.6881 -8.7621 -0.5753
-0.2304 16.3248 -0.6659 178.1740 -5.2518 -159.1680 0.0000 0.0000 0.0000 -30.2045 -11.6085 -36.8657 4.9697 13.3496 40.6915 3.2570 8.3692 -37.7269 0.0454 1.3755 3.7825 0.0000 0.0000 0.0000 24.5872 -10.4405 -30.1029 -9.6064 -17.1825 58.1646 -1.3251 -28.4789 27.1513 -0.9372 -6.1665 17.2683 -1.3542 0.5907 -15.1190 0.4512 0.2150 -5.6774 1.2598 -0.1976 2.4529 -1.1296 1.4450 -13.3254 1.6277 -2.7941 38.9488 -0.0064 -2.6203 16.1763 -0.0000 -0.0000 0.0000 -92.4198 18.7706 1.6412 16.7589 -26.5388 -3.9790 -0.0000 -0.0000 12.4063 17.2310 18.1402 5.5155 -7.1250 0.0000 -0.0000 -10.5582 48.6239 -0.9535 -0.0000 -0.0000 0.0000 84.8558 -12.7220 -4.6782 -6.5068 11.1047 -0.6332 0.0000 0.0000 12.4812 -29.1162 18.8926 -10.2229 7.1250 -0.0000 -0.0000 -0.5842 -8.5887 -0.4905
